<svg width="50" height="50" viewBox="0 0 50 50" fill="none" xmlns="http://www.w3.org/2000/svg">
<path d="M14.3894 12.7057C14.4468 12.5048 14.5329 12.3422 14.6477 12.2178C14.7625 12.0839 14.8869 12.0169 15.0208 12.0169C15.3461 12.0169 15.5805 12.0791 15.724 12.2034C15.8675 12.3278 15.9392 12.5431 15.9392 12.8492C15.9392 12.9353 15.8722 13.1792 15.7383 13.581C15.4417 14.4899 15.1165 15.614 14.7625 16.9533C14.6764 17.2594 14.6047 17.5273 14.5473 17.7569C14.4994 17.9865 14.4564 18.1778 14.4181 18.3309C14.1885 19.3163 13.9876 20.0577 13.8154 20.5551C13.758 20.6986 13.6576 20.8134 13.5141 20.8995C13.3706 20.9761 13.2175 21.0144 13.0549 21.0144C12.8922 21.0144 12.7296 20.9809 12.567 20.9139C12.4139 20.8374 12.3039 20.7513 12.2369 20.6556C11.9403 20.072 11.572 19.278 11.132 18.2735C10.7015 17.2594 10.3666 16.3745 10.1275 15.6187C9.53432 17.1207 9.00337 18.5701 8.5346 19.9668C8.5059 20.0529 8.47242 20.1486 8.43415 20.2538C8.40545 20.3495 8.37197 20.4499 8.3337 20.5551C8.26673 20.6986 8.17107 20.8134 8.0467 20.8995C7.92233 20.9761 7.78362 21.0144 7.63055 21.0144C7.45835 21.0144 7.29093 20.9809 7.1283 20.9139C6.96567 20.8374 6.85565 20.7513 6.79825 20.6556C6.67388 20.4451 6.53995 20.1199 6.39645 19.6798C6.26252 19.2397 6.08075 18.6227 5.85115 17.8286L5.4924 16.6089C5.24367 15.8149 5.02842 15.0017 4.84665 14.1694C4.66488 13.3371 4.574 12.8396 4.574 12.677C4.574 12.4761 4.67445 12.3182 4.87535 12.2034C5.07625 12.0791 5.27715 12.0169 5.47805 12.0169C5.59285 12.0169 5.71243 12.0552 5.8368 12.1317C5.96117 12.1987 6.04248 12.3182 6.08075 12.4904C6.41558 14.2794 6.90827 16.3554 7.5588 18.7183C7.80753 18.1252 8.08018 17.4029 8.37675 16.5515C8.68288 15.7001 8.97467 14.8725 9.2521 14.0689L9.3956 13.6384C9.43387 13.4949 9.52953 13.3849 9.6826 13.3084C9.84523 13.2223 10.0079 13.1792 10.1705 13.1792C10.381 13.1792 10.5532 13.2319 10.6871 13.3371C10.821 13.4423 10.9071 13.5571 10.9454 13.6815C10.955 13.7198 11.1463 14.289 11.5194 15.3891C11.8925 16.4893 12.3374 17.599 12.854 18.7183C13.0453 18.1539 13.2749 17.2499 13.5428 16.0062L13.758 15.0591C14.0163 14.045 14.2268 13.2606 14.3894 12.7057ZM21.1854 11.8734C21.8263 11.8734 22.4099 11.9547 22.9361 12.1173C23.4622 12.2704 23.8927 12.5 24.2276 12.8061C24.8303 13.3514 25.2512 13.9494 25.4904 14.5999C25.7391 15.2409 25.8635 16.0636 25.8635 17.0681C25.8635 17.2786 25.8348 17.4699 25.7774 17.6421C25.7295 17.8143 25.6482 18.0343 25.5334 18.3022C25.3899 18.5988 25.3038 18.8331 25.2751 19.0053C25.0838 19.3402 24.7681 19.6607 24.328 19.9668C23.8975 20.2729 23.4287 20.5217 22.9217 20.713C22.4147 20.9043 21.9698 21 21.5872 21C19.7408 21 18.4254 20.3686 17.6409 19.1058C17.4209 18.7518 17.2487 18.3835 17.1243 18.0008C17.0095 17.6182 16.9521 17.2451 16.9521 16.8815C16.9521 15.9057 17.1243 15.0591 17.4687 14.3416C17.8227 13.6145 18.3106 13.0501 18.9324 12.6483C19.3055 12.4283 19.693 12.2465 20.0948 12.103C20.5061 11.9499 20.8697 11.8734 21.1854 11.8734ZM18.4445 16.9246C18.4445 17.4412 18.5593 17.8669 18.7889 18.2017C19.0281 18.5366 19.3916 18.9001 19.8795 19.2923C20.2813 19.4454 20.554 19.5459 20.6975 19.5937C20.841 19.632 21.0036 19.6511 21.1854 19.6511C22.1516 19.6511 22.9217 19.388 23.4957 18.8618C24.0697 18.3357 24.3567 17.6134 24.3567 16.695C24.3567 15.9679 24.2754 15.3939 24.1128 14.973C23.9501 14.5521 23.6583 14.1742 23.2374 13.8393C23.0174 13.6576 22.7352 13.5236 22.3908 13.4375C22.0559 13.3514 21.6924 13.3084 21.3002 13.3084C20.707 13.3084 20.1952 13.4854 19.7647 13.8393C19.3342 14.1837 19.0042 14.6334 18.7746 15.1882C18.5545 15.7431 18.4445 16.3219 18.4445 16.9246ZM34.884 19.6511C35.0275 19.6511 35.1423 19.7133 35.2284 19.8376C35.3241 19.962 35.3719 20.0959 35.3719 20.2394C35.3719 20.4882 35.2762 20.6795 35.0849 20.8134C34.9031 20.9378 34.664 21 34.3674 21C33.9273 21 33.5734 20.9235 33.3055 20.7704C33.0376 20.6173 32.7985 20.3303 32.588 19.9094C32.521 19.7563 32.4397 19.5076 32.3441 19.1632C32.258 18.8188 32.1671 18.5461 32.0714 18.3452C31.9853 18.1348 31.837 17.9578 31.6266 17.8143C31.4257 17.6708 31.1482 17.5943 30.7943 17.5847L30.4786 17.599C30.1533 17.6182 29.9093 17.6277 29.7467 17.6277C29.5554 17.6277 29.3736 17.6134 29.2014 17.5847C29.2205 18.8475 29.2301 19.8137 29.2301 20.4834C29.2301 20.6556 29.144 20.7991 28.9718 20.9139C28.8092 21.0287 28.6226 21.0861 28.4122 21.0861C28.1634 21.0861 27.9673 20.9904 27.8238 20.7991C27.709 20.5695 27.6516 20.2299 27.6516 19.7802C27.6516 19.6272 27.6612 19.4071 27.6803 19.1201L27.6947 18.4887C27.6947 17.9052 27.7186 17.2786 27.7664 16.6089C27.8047 15.8436 27.8238 15.2839 27.8238 14.9299C27.8238 14.6334 27.7951 14.2364 27.7377 13.7389C27.7281 13.6432 27.7138 13.4902 27.6947 13.2797C27.6755 13.0597 27.666 12.8635 27.666 12.6913C27.666 12.567 27.7186 12.4522 27.8238 12.3469C27.929 12.2417 28.0343 12.1747 28.1395 12.146C28.924 12.0217 29.6989 11.9595 30.4642 11.9595C31.7079 11.9595 32.7267 12.1939 33.5208 12.6626C34.3148 13.1314 34.7118 13.8489 34.7118 14.8151C34.7118 15.1021 34.6353 15.4035 34.4822 15.7192C34.3387 16.0253 34.1569 16.2645 33.9369 16.4367C33.5638 16.762 33.162 16.9724 32.7315 17.0681C32.7506 17.0872 32.8559 17.1829 33.0472 17.3551C33.2385 17.5273 33.3677 17.7091 33.4347 17.9004L33.6212 18.4744C33.7838 18.9432 33.913 19.2684 34.0087 19.4502C34.1043 19.6224 34.2287 19.7085 34.3818 19.7085C34.5253 19.7085 34.6114 19.6989 34.6401 19.6798C34.6783 19.6607 34.7596 19.6511 34.884 19.6511ZM29.1871 16.3649C29.4741 16.3841 29.675 16.3936 29.7898 16.3936C29.962 16.3936 30.2011 16.3841 30.5073 16.3649L31.1817 16.3506C31.4783 16.3506 31.7844 16.2836 32.1001 16.1497C32.4158 16.0158 32.6789 15.8292 32.8894 15.59C33.0998 15.3413 33.2051 15.0639 33.2051 14.7577C33.2051 14.2124 32.985 13.8154 32.545 13.5667C32.1049 13.318 31.4209 13.1936 30.4929 13.1936C30.1389 13.1936 29.7228 13.2414 29.2445 13.3371C29.2636 13.6815 29.2732 13.9302 29.2732 14.0833C29.2732 14.2651 29.2636 14.5377 29.2445 14.9012L29.2301 15.3174C29.2014 15.7192 29.1871 16.0684 29.1871 16.3649ZM44.2706 20.1964C44.3663 20.2442 44.438 20.3064 44.4858 20.3829C44.5432 20.4595 44.5719 20.5695 44.5719 20.713C44.5719 20.8948 44.5002 21.0383 44.3567 21.1435C44.2132 21.2583 44.0553 21.3157 43.8831 21.3157C43.6727 21.3157 43.4335 21.2631 43.1656 21.1579C42.6299 20.9187 42.0894 20.4308 41.5441 19.6941C40.9988 18.9479 40.4009 17.9674 39.7503 16.7524C39.205 17.1733 38.6502 17.5656 38.0857 17.9291C38.0857 18.13 38.0905 18.3644 38.1001 18.6322C38.1192 18.8905 38.1288 19.0819 38.1288 19.2062C38.1479 19.7611 38.1575 20.1294 38.1575 20.3112C38.1575 20.4738 38.1049 20.6317 37.9996 20.7847C37.8944 20.9282 37.7366 21 37.5261 21C37.22 21 36.9999 20.9522 36.866 20.8565C36.7321 20.7513 36.6507 20.603 36.622 20.4116C36.5455 19.9333 36.5072 19.4741 36.5072 19.034C36.5072 18.5366 36.5455 17.8191 36.622 16.8815C36.6986 15.9823 36.7368 15.3078 36.7368 14.8582C36.7368 14.686 36.7273 14.4373 36.7081 14.112C36.6986 13.8537 36.6699 13.6145 36.622 13.3945C36.5838 13.0884 36.5646 12.8731 36.5646 12.7487C36.5646 12.4426 36.6316 12.2226 36.7655 12.0886C36.8995 11.9547 37.1052 11.8877 37.3826 11.8877C37.5931 11.8877 37.7653 11.9499 37.8992 12.0743C38.0427 12.1891 38.124 12.3469 38.1431 12.5478C38.191 13.361 38.2149 13.9876 38.2149 14.4277C38.2053 14.6669 38.1862 15.0113 38.1575 15.4609C38.1384 15.901 38.1192 16.1784 38.1001 16.2932C38.4254 16.1114 39.0615 15.59 40.0086 14.729C40.9653 13.8585 41.6445 13.1745 42.0463 12.677L42.2329 12.4617C42.386 12.2608 42.5151 12.1221 42.6203 12.0456C42.7256 11.9691 42.8691 11.9308 43.0508 11.9308C43.2326 11.9308 43.3952 11.993 43.5387 12.1173C43.6918 12.2321 43.7683 12.3709 43.7683 12.5335C43.7683 12.8492 43.6057 13.1697 43.2804 13.4949C42.4864 14.3177 41.6924 15.083 40.8983 15.7909C41.4628 16.8528 42.0129 17.7665 42.5486 18.5318C43.0939 19.2876 43.6679 19.8424 44.2706 20.1964ZM7.53145 27.5636H11.0578L13.4834 33.4749H13.6057L16.0314 27.5636H19.5577V38H16.7856V31.9665H16.704L14.3803 37.9185H12.7089L10.3851 31.9257H10.3036V38H7.53145V27.5636ZM23.6115 38H20.554L23.9988 27.5636H27.8717L31.3165 38H28.2589L25.976 30.4377H25.8945L23.6115 38ZM23.0408 33.8825H28.7889V36.0024H23.0408V33.8825ZM41.3515 27.5636V38H38.987L35.2161 32.5168H35.1549V38H32.3216V27.5636H34.7269L38.4367 33.0264H38.5182V27.5636H41.3515Z" fill="#009FD9"/>
</svg>
