<svg width="239" height="84" viewBox="0 0 239 84" fill="none" xmlns="http://www.w3.org/2000/svg">
<rect width="239" height="84" fill="white"/>
<path d="M28.72 31.5922C28.84 31.1722 29.02 30.8322 29.26 30.5722C29.5 30.2922 29.76 30.1522 30.04 30.1522C30.72 30.1522 31.21 30.2822 31.51 30.5422C31.81 30.8022 31.96 31.2522 31.96 31.8922C31.96 32.0722 31.82 32.5822 31.54 33.4222C30.92 35.3222 30.24 37.6722 29.5 40.4722C29.32 41.1122 29.17 41.6722 29.05 42.1522C28.95 42.6322 28.86 43.0322 28.78 43.3522C28.3 45.4122 27.88 46.9622 27.52 48.0022C27.4 48.3022 27.19 48.5422 26.89 48.7222C26.59 48.8822 26.27 48.9622 25.93 48.9622C25.59 48.9622 25.25 48.8922 24.91 48.7522C24.59 48.5922 24.36 48.4122 24.22 48.2122C23.6 46.9922 22.83 45.3322 21.91 43.2322C21.01 41.1122 20.31 39.2622 19.81 37.6822C18.57 40.8222 17.46 43.8522 16.48 46.7722C16.42 46.9522 16.35 47.1522 16.27 47.3722C16.21 47.5722 16.14 47.7822 16.06 48.0022C15.92 48.3022 15.72 48.5422 15.46 48.7222C15.2 48.8822 14.91 48.9622 14.59 48.9622C14.23 48.9622 13.88 48.8922 13.54 48.7522C13.2 48.5922 12.97 48.4122 12.85 48.2122C12.59 47.7722 12.31 47.0922 12.01 46.1722C11.73 45.2522 11.35 43.9622 10.87 42.3022L10.12 39.7522C9.6 38.0922 9.15 36.3922 8.77 34.6522C8.39 32.9122 8.2 31.8722 8.2 31.5322C8.2 31.1122 8.41 30.7822 8.83 30.5422C9.25 30.2822 9.67 30.1522 10.09 30.1522C10.33 30.1522 10.58 30.2322 10.84 30.3922C11.1 30.5322 11.27 30.7822 11.35 31.1422C12.05 34.8822 13.08 39.2222 14.44 44.1622C14.96 42.9222 15.53 41.4122 16.15 39.6322C16.79 37.8522 17.4 36.1222 17.98 34.4422L18.28 33.5422C18.36 33.2422 18.56 33.0122 18.88 32.8522C19.22 32.6722 19.56 32.5822 19.9 32.5822C20.34 32.5822 20.7 32.6922 20.98 32.9122C21.26 33.1322 21.44 33.3722 21.52 33.6322C21.54 33.7122 21.94 34.9022 22.72 37.2022C23.5 39.5022 24.43 41.8222 25.51 44.1622C25.91 42.9822 26.39 41.0922 26.95 38.4922L27.4 36.5122C27.94 34.3922 28.38 32.7522 28.72 31.5922ZM42.9276 29.8522C44.2676 29.8522 45.4876 30.0222 46.5876 30.3622C47.6876 30.6822 48.5876 31.1622 49.2876 31.8022C50.5476 32.9422 51.4276 34.1922 51.9276 35.5522C52.4476 36.8922 52.7076 38.6122 52.7076 40.7122C52.7076 41.1522 52.6476 41.5522 52.5276 41.9122C52.4276 42.2722 52.2576 42.7322 52.0176 43.2922C51.7176 43.9122 51.5376 44.4022 51.4776 44.7622C51.0776 45.4622 50.4176 46.1322 49.4976 46.7722C48.5976 47.4122 47.6176 47.9322 46.5576 48.3322C45.4976 48.7322 44.5676 48.9322 43.7676 48.9322C39.9076 48.9322 37.1576 47.6122 35.5176 44.9722C35.0576 44.2322 34.6976 43.4622 34.4376 42.6622C34.1976 41.8622 34.0776 41.0822 34.0776 40.3222C34.0776 38.2822 34.4376 36.5122 35.1576 35.0122C35.8976 33.4922 36.9176 32.3122 38.2176 31.4722C38.9976 31.0122 39.8076 30.6322 40.6476 30.3322C41.5076 30.0122 42.2676 29.8522 42.9276 29.8522ZM37.1976 40.4122C37.1976 41.4922 37.4376 42.3822 37.9176 43.0822C38.4176 43.7822 39.1776 44.5422 40.1976 45.3622C41.0376 45.6822 41.6076 45.8922 41.9076 45.9922C42.2076 46.0722 42.5476 46.1122 42.9276 46.1122C44.9476 46.1122 46.5576 45.5622 47.7576 44.4622C48.9576 43.3622 49.5576 41.8522 49.5576 39.9322C49.5576 38.4122 49.3876 37.2122 49.0476 36.3322C48.7076 35.4522 48.0976 34.6622 47.2176 33.9622C46.7576 33.5822 46.1676 33.3022 45.4476 33.1222C44.7476 32.9422 43.9876 32.8522 43.1676 32.8522C41.9276 32.8522 40.8576 33.2222 39.9576 33.9622C39.0576 34.6822 38.3676 35.6222 37.8876 36.7822C37.4276 37.9422 37.1976 39.1522 37.1976 40.4122ZM71.5659 46.1122C71.8659 46.1122 72.1059 46.2422 72.2859 46.5022C72.4859 46.7622 72.5859 47.0422 72.5859 47.3422C72.5859 47.8622 72.3859 48.2622 71.9859 48.5422C71.6059 48.8022 71.1059 48.9322 70.4859 48.9322C69.5659 48.9322 68.8259 48.7722 68.2659 48.4522C67.7059 48.1322 67.2059 47.5322 66.7659 46.6522C66.6259 46.3322 66.4559 45.8122 66.2559 45.0922C66.0759 44.3722 65.8859 43.8022 65.6859 43.3822C65.5059 42.9422 65.1959 42.5722 64.7559 42.2722C64.3359 41.9722 63.7559 41.8122 63.0159 41.7922L62.3559 41.8222C61.6759 41.8622 61.1659 41.8822 60.8259 41.8822C60.4259 41.8822 60.0459 41.8522 59.6859 41.7922C59.7259 44.4322 59.7459 46.4522 59.7459 47.8522C59.7459 48.2122 59.5659 48.5122 59.2059 48.7522C58.8659 48.9922 58.4759 49.1122 58.0359 49.1122C57.5159 49.1122 57.1059 48.9122 56.8059 48.5122C56.5659 48.0322 56.4459 47.3222 56.4459 46.3822C56.4459 46.0622 56.4659 45.6022 56.5059 45.0022L56.5359 43.6822C56.5359 42.4622 56.5859 41.1522 56.6859 39.7522C56.7659 38.1522 56.8059 36.9822 56.8059 36.2422C56.8059 35.6222 56.7459 34.7922 56.6259 33.7522C56.6059 33.5522 56.5759 33.2322 56.5359 32.7922C56.4959 32.3322 56.4759 31.9222 56.4759 31.5622C56.4759 31.3022 56.5859 31.0622 56.8059 30.8422C57.0259 30.6222 57.2459 30.4822 57.4659 30.4222C59.1059 30.1622 60.7259 30.0322 62.3259 30.0322C64.9259 30.0322 67.0559 30.5222 68.7159 31.5022C70.3759 32.4822 71.2059 33.9822 71.2059 36.0022C71.2059 36.6022 71.0459 37.2322 70.7259 37.8922C70.4259 38.5322 70.0459 39.0322 69.5859 39.3922C68.8059 40.0722 67.9659 40.5122 67.0659 40.7122C67.1059 40.7522 67.3259 40.9522 67.7259 41.3122C68.1259 41.6722 68.3959 42.0522 68.5359 42.4522L68.9259 43.6522C69.2659 44.6322 69.5359 45.3122 69.7359 45.6922C69.9359 46.0522 70.1959 46.2322 70.5159 46.2322C70.8159 46.2322 70.9959 46.2122 71.0559 46.1722C71.1359 46.1322 71.3059 46.1122 71.5659 46.1122ZM59.6559 39.2422C60.2559 39.2822 60.6759 39.3022 60.9159 39.3022C61.2759 39.3022 61.7759 39.2822 62.4159 39.2422L63.8259 39.2122C64.4459 39.2122 65.0859 39.0722 65.7459 38.7922C66.4059 38.5122 66.9559 38.1222 67.3959 37.6222C67.8359 37.1022 68.0559 36.5222 68.0559 35.8822C68.0559 34.7422 67.5959 33.9122 66.6759 33.3922C65.7559 32.8722 64.3259 32.6122 62.3859 32.6122C61.6459 32.6122 60.7759 32.7122 59.7759 32.9122C59.8159 33.6322 59.8359 34.1522 59.8359 34.4722C59.8359 34.8522 59.8159 35.4222 59.7759 36.1822L59.7459 37.0522C59.6859 37.8922 59.6559 38.6222 59.6559 39.2422ZM91.1894 47.2522C91.3894 47.3522 91.5394 47.4822 91.6394 47.6422C91.7594 47.8022 91.8194 48.0322 91.8194 48.3322C91.8194 48.7122 91.6694 49.0122 91.3694 49.2322C91.0694 49.4722 90.7394 49.5922 90.3794 49.5922C89.9394 49.5922 89.4394 49.4822 88.8794 49.2622C87.7594 48.7622 86.6294 47.7422 85.4894 46.2022C84.3494 44.6422 83.0994 42.5922 81.7394 40.0522C80.5994 40.9322 79.4394 41.7522 78.2594 42.5122C78.2594 42.9322 78.2694 43.4222 78.2894 43.9822C78.3294 44.5222 78.3494 44.9222 78.3494 45.1822C78.3894 46.3422 78.4094 47.1122 78.4094 47.4922C78.4094 47.8322 78.2994 48.1622 78.0794 48.4822C77.8594 48.7822 77.5294 48.9322 77.0894 48.9322C76.4494 48.9322 75.9894 48.8322 75.7094 48.6322C75.4294 48.4122 75.2594 48.1022 75.1994 47.7022C75.0394 46.7022 74.9594 45.7422 74.9594 44.8222C74.9594 43.7822 75.0394 42.2822 75.1994 40.3222C75.3594 38.4422 75.4394 37.0322 75.4394 36.0922C75.4394 35.7322 75.4194 35.2122 75.3794 34.5322C75.3594 33.9922 75.2994 33.4922 75.1994 33.0322C75.1194 32.3922 75.0794 31.9422 75.0794 31.6822C75.0794 31.0422 75.2194 30.5822 75.4994 30.3022C75.7794 30.0222 76.2094 29.8822 76.7894 29.8822C77.2294 29.8822 77.5894 30.0122 77.8694 30.2722C78.1694 30.5122 78.3394 30.8422 78.3794 31.2622C78.4794 32.9622 78.5294 34.2722 78.5294 35.1922C78.5094 35.6922 78.4694 36.4122 78.4094 37.3522C78.3694 38.2722 78.3294 38.8522 78.2894 39.0922C78.9694 38.7122 80.2994 37.6222 82.2794 35.8222C84.2794 34.0022 85.6994 32.5722 86.5394 31.5322L86.9294 31.0822C87.2494 30.6622 87.5194 30.3722 87.7394 30.2122C87.9594 30.0522 88.2594 29.9722 88.6394 29.9722C89.0194 29.9722 89.3594 30.1022 89.6594 30.3622C89.9794 30.6022 90.1394 30.8922 90.1394 31.2322C90.1394 31.8922 89.7994 32.5622 89.1194 33.2422C87.4594 34.9622 85.7994 36.5622 84.1394 38.0422C85.3194 40.2622 86.4694 42.1722 87.5894 43.7722C88.7294 45.3522 89.9294 46.5122 91.1894 47.2522ZM160.926 27.114H168.298L173.369 39.472H173.625L178.696 27.114H186.068V48.9322H180.272V36.3186H180.102L175.244 48.7617H171.75L166.892 36.2333H166.721V48.9322H160.926V27.114ZM194.543 48.9322H188.151L195.352 27.114H203.449L210.651 48.9322H204.259L199.486 33.1225H199.315L194.543 48.9322ZM193.349 40.3242H205.366V44.7561H193.349V40.3242ZM231.63 27.114V48.9322H226.687L218.803 37.4691H218.675V48.9322H212.752V27.114H217.78L225.536 38.5345H225.706V27.114H231.63Z" fill="#009FD9"/>
<path d="M125.289 22.6545C126.461 22.6545 127.585 21.9304 128.414 20.6415C129.243 19.3527 129.709 17.6046 129.709 15.7818C129.709 13.959 129.243 12.2109 128.414 10.9221C127.585 9.63318 126.461 8.90909 125.289 8.90909C124.116 8.90909 122.992 9.63318 122.163 10.9221C121.334 12.2109 120.869 13.959 120.869 15.7818C120.869 17.6046 121.334 19.3527 122.163 20.6415C122.992 21.9304 124.116 22.6545 125.289 22.6545ZM138.058 40.9817C137.276 40.9817 136.527 41.4645 135.974 42.3237C135.421 43.183 135.111 44.3484 135.111 45.5635V46.0874C135.111 46.4925 135.214 46.8809 135.399 47.1673C135.583 47.4538 135.833 47.6147 136.093 47.6147C136.354 47.6147 136.604 47.4538 136.788 47.1673C136.972 46.8809 137.075 46.4925 137.075 46.0874V45.5635C137.075 45.1585 137.179 44.77 137.363 44.4836C137.547 44.1972 137.797 44.0363 138.058 44.0363C138.318 44.0363 138.568 44.1972 138.752 44.4836C138.936 44.77 139.04 45.1585 139.04 45.5635V68.3901C139.04 68.7952 139.143 69.1836 139.328 69.47C139.512 69.7565 139.762 69.9174 140.022 69.9174C140.283 69.9174 140.532 69.7565 140.717 69.47C140.901 69.1836 141.004 68.7952 141.004 68.3901V45.5635C141.004 44.3484 140.694 43.183 140.141 42.3237C139.589 41.4645 138.839 40.9817 138.058 40.9817ZM132.861 33.6188L131.182 32.4794L132.749 33.5134L132.861 33.6188ZM134.065 35.2407C133.723 34.6011 133.317 34.0532 132.861 33.6188L139.04 37.8172V37.6706V37.6737C139.133 39.3537 138.298 40.8305 137.175 40.9726C136.061 41.11 135.081 39.8821 134.973 38.222V38.2189C134.944 37.9495 134.901 37.684 134.846 37.4247C134.674 36.6285 134.409 35.8883 134.065 35.2407Z" fill="black"/>
<path fill-rule="evenodd" clip-rule="evenodd" d="M139.04 37.6691L132.749 33.5149C132.256 33.0693 131.73 32.7209 131.182 32.4779V66.9453C131.182 67.7289 130.988 68.4824 130.641 69.05C130.293 69.6176 129.819 69.9559 129.315 69.9949C128.812 70.0339 128.318 69.7707 127.936 69.2597C127.554 68.7486 127.313 68.0289 127.263 67.2492L126.281 51.9765C126.274 51.8755 126.271 51.7741 126.271 51.6726H124.306C124.306 51.7734 124.303 51.8757 124.297 51.9765L123.314 67.2492C123.264 68.0289 123.023 68.7486 122.641 69.2597C122.259 69.7707 121.765 70.0339 121.262 69.9949C120.758 69.9559 120.284 69.6176 119.937 69.05C119.589 68.4824 119.395 67.7289 119.395 66.9453V45.4398C117.746 45.0992 116.36 44.0683 115.333 42.4998C114.744 41.6027 114.278 40.5295 113.964 39.3449C113.649 38.1603 113.492 36.8889 113.502 35.6073C113.51 34.3294 113.681 33.0667 114.004 31.8921C114.328 30.7175 114.798 29.6542 115.388 28.7636C116.655 26.8408 118.461 25.709 120.628 25.709H127.818C132.703 25.709 135.621 28.339 137.267 31.45C137.914 32.6705 138.412 34.0657 138.734 35.566C138.878 36.238 138.99 36.9299 139.038 37.6324V37.6553L139.04 37.6645V37.6691ZM118.247 38.222C118.499 38.6068 118.867 38.9795 119.395 39.2116V32.0778C118.904 32.3099 118.547 32.6719 118.292 33.0567C118.069 33.3976 117.892 33.8035 117.771 34.2512C117.65 34.6989 117.586 35.1795 117.585 35.6653C117.579 36.6428 117.813 37.5591 118.247 38.222Z" fill="black"/>
</svg>
